<svg width="19" height="20" viewBox="0 0 19 20" fill="none" xmlns="http://www.w3.org/2000/svg">
<path d="M12.828 6.56743L7.17198 12.2244C7.07647 12.3167 7.00029 12.427 6.94788 12.549C6.89547 12.671 6.86789 12.8023 6.86673 12.935C6.86558 13.0678 6.89088 13.1995 6.94116 13.3224C6.99144 13.4453 7.06569 13.5569 7.15959 13.6508C7.25348 13.7447 7.36513 13.819 7.48803 13.8693C7.61092 13.9195 7.7426 13.9448 7.87538 13.9437C8.00816 13.9425 8.13938 13.9149 8.26139 13.8625C8.38339 13.8101 8.49374 13.7339 8.58598 13.6384L14.243 7.98243C14.8056 7.41978 15.1217 6.65665 15.1217 5.86093C15.1217 5.06522 14.8056 4.30209 14.243 3.73943C13.6803 3.17678 12.9172 2.86068 12.1215 2.86068C11.3258 2.86068 10.5626 3.17678 9.99998 3.73943L4.34298 9.39643C3.86906 9.85856 3.49161 10.4102 3.23254 11.0193C2.97347 11.6285 2.83793 12.283 2.83378 12.9449C2.82963 13.6068 2.95696 14.263 3.20838 14.8753C3.4598 15.4877 3.8303 16.044 4.2984 16.512C4.76649 16.9801 5.32286 17.3505 5.93524 17.6018C6.54761 17.8531 7.20379 17.9804 7.86572 17.9761C8.52764 17.9719 9.18214 17.8363 9.79124 17.5771C10.4003 17.3179 10.9519 16.9404 11.414 16.4664L17.071 10.8104L18.485 12.2244L12.828 17.8814C12.1779 18.5315 11.4062 19.0471 10.5569 19.3989C9.70758 19.7507 8.79728 19.9318 7.87798 19.9318C6.95868 19.9318 6.04838 19.7507 5.19906 19.3989C4.34974 19.0471 3.57802 18.5315 2.92798 17.8814C2.27794 17.2314 1.7623 16.4597 1.41049 15.6104C1.05869 14.761 0.877625 13.8507 0.877625 12.9314C0.877625 12.0121 1.05869 11.1018 1.41049 10.2525C1.7623 9.40319 2.27794 8.63148 2.92798 7.98143L8.58598 2.32543C9.52899 1.41464 10.792 0.910672 12.103 0.922064C13.414 0.933456 14.668 1.4593 15.5951 2.38634C16.5221 3.31338 17.048 4.56744 17.0594 5.87843C17.0707 7.18941 16.5668 8.45242 15.656 9.39543L9.99998 15.0544C9.72132 15.333 9.39051 15.554 9.02644 15.7048C8.66237 15.8555 8.27217 15.9331 7.87813 15.933C7.48408 15.933 7.09391 15.8553 6.72987 15.7045C6.36584 15.5537 6.03508 15.3326 5.75648 15.0539C5.47788 14.7753 5.2569 14.4445 5.10615 14.0804C4.95539 13.7163 4.87783 13.3261 4.87787 12.9321C4.87792 12.538 4.95558 12.1479 5.10642 11.7838C5.25725 11.4198 5.47832 11.089 5.75698 10.8104L11.414 5.15343L12.828 6.56743Z" fill="#131523"/>
</svg>
