<svg width="14" height="18" viewBox="0 0 14 18" fill="none" xmlns="http://www.w3.org/2000/svg">
<path fill-rule="evenodd" clip-rule="evenodd" d="M0 17.3086V0.30883H9.14848C10.4926 0.292044 11.3736 1.17133 11.8492 2.12851C12.3159 3.0677 12.4932 4.23413 12.4723 5.32124C12.453 6.3283 12.2614 7.38734 11.8665 8.27216C12.5266 8.56305 13.0215 9.0924 13.3517 9.68995C13.8375 10.5692 14.0198 11.6576 13.9983 12.6646C13.9768 13.6754 13.7471 14.7465 13.2661 15.6093C12.7837 16.4746 11.9389 17.2906 10.6987 17.3085L10.6824 16.1495V17.3086H0ZM9.72311 7.43892C9.44989 7.98301 9.2215 8.03321 9.1447 8.036H2.28909V2.62698H9.15635V1.46791L9.17414 2.62684C9.34637 2.62413 9.56659 2.69185 9.80442 3.17049C10.0524 3.66949 10.1999 4.43044 10.1837 5.27618C10.1675 6.11801 9.99157 6.9043 9.72311 7.43892ZM2.28909 14.9904V10.3541H10.733C10.9566 10.3597 11.156 10.4634 11.3541 10.8219C11.5828 11.2359 11.7254 11.8818 11.7098 12.6145C11.6942 13.3433 11.5248 14.0174 11.2727 14.4697C11.0253 14.9134 10.8056 14.9867 10.6717 14.9904H2.28909Z" fill="#131523"/>
</svg>
