<svg width="18" height="18" viewBox="0 0 18 18" fill="none" xmlns="http://www.w3.org/2000/svg">
<path d="M5 0.808594H18V2.80859H5V0.808594ZM1.5 3.30859C1.10218 3.30859 0.720644 3.15056 0.43934 2.86925C0.158035 2.58795 0 2.20642 0 1.80859C0 1.41077 0.158035 1.02924 0.43934 0.747934C0.720644 0.466629 1.10218 0.308594 1.5 0.308594C1.89782 0.308594 2.27936 0.466629 2.56066 0.747934C2.84196 1.02924 3 1.41077 3 1.80859C3 2.20642 2.84196 2.58795 2.56066 2.86925C2.27936 3.15056 1.89782 3.30859 1.5 3.30859ZM1.5 10.3086C1.10218 10.3086 0.720644 10.1506 0.43934 9.86925C0.158035 9.58795 0 9.20642 0 8.80859C0 8.41077 0.158035 8.02924 0.43934 7.74793C0.720644 7.46663 1.10218 7.30859 1.5 7.30859C1.89782 7.30859 2.27936 7.46663 2.56066 7.74793C2.84196 8.02924 3 8.41077 3 8.80859C3 9.20642 2.84196 9.58795 2.56066 9.86925C2.27936 10.1506 1.89782 10.3086 1.5 10.3086ZM1.5 17.2086C1.10218 17.2086 0.720644 17.0506 0.43934 16.7693C0.158035 16.4879 0 16.1064 0 15.7086C0 15.3108 0.158035 14.9292 0.43934 14.6479C0.720644 14.3666 1.10218 14.2086 1.5 14.2086C1.89782 14.2086 2.27936 14.3666 2.56066 14.6479C2.84196 14.9292 3 15.3108 3 15.7086C3 16.1064 2.84196 16.4879 2.56066 16.7693C2.27936 17.0506 1.89782 17.2086 1.5 17.2086ZM5 7.80859H18V9.80859H5V7.80859ZM5 14.8086H18V16.8086H5V14.8086Z" fill="#131523"/>
</svg>
