<svg width="20" height="21" viewBox="0 0 20 21" fill="none" xmlns="http://www.w3.org/2000/svg">
<path d="M16.364 14.3448L14.95 12.9288L16.364 11.5148C16.8316 11.0513 17.2031 10.4999 17.4571 9.89242C17.7111 9.28492 17.8425 8.63324 17.844 7.97479C17.8454 7.31634 17.7168 6.66409 17.4655 6.05548C17.2142 5.44688 16.8451 4.8939 16.3795 4.42831C15.9139 3.96271 15.361 3.59366 14.7524 3.34235C14.1437 3.09104 13.4915 2.96241 12.833 2.96385C12.1746 2.9653 11.5229 3.09678 10.9154 3.35075C10.3079 3.60473 9.75656 3.9762 9.29301 4.44383L7.87901 5.85883L6.46401 4.44483L7.88001 3.03083C9.19283 1.718 10.9734 0.980469 12.83 0.980469C14.6866 0.980469 16.4672 1.718 17.78 3.03083C19.0928 4.34365 19.8304 6.12422 19.8304 7.98083C19.8304 9.83744 19.0928 11.618 17.78 12.9308L16.365 14.3448H16.364ZM13.536 17.1728L12.121 18.5868C10.8082 19.8996 9.02762 20.6372 7.17101 20.6372C5.3144 20.6372 3.53383 19.8996 2.22101 18.5868C0.90819 17.274 0.170654 15.4934 0.170654 13.6368C0.170654 11.7802 0.90819 9.99965 2.22101 8.68683L3.63601 7.27283L5.05001 8.68883L3.63601 10.1028C3.16838 10.5664 2.79692 11.1177 2.54294 11.7252C2.28896 12.3327 2.15748 12.9844 2.15604 13.6429C2.1546 14.3013 2.28323 14.9536 2.53454 15.5622C2.78585 16.1708 3.1549 16.7237 3.62049 17.1893C4.08609 17.6549 4.63906 18.024 5.24767 18.2753C5.85628 18.5266 6.50853 18.6552 7.16698 18.6538C7.82543 18.6524 8.47711 18.5209 9.08461 18.2669C9.69211 18.0129 10.2435 17.6415 10.707 17.1738L12.121 15.7598L13.536 17.1738V17.1728ZM12.828 6.56583L14.243 7.98083L7.17201 15.0508L5.75701 13.6368L12.828 6.56683V6.56583Z" fill="#131523"/>
</svg>
