<svg width="18" height="19" viewBox="0 0 18 19" fill="none" xmlns="http://www.w3.org/2000/svg">
<path d="M1 0.808594H17C17.2652 0.808594 17.5196 0.913951 17.7071 1.10149C17.8946 1.28902 18 1.54338 18 1.80859V17.8086C18 18.0738 17.8946 18.3282 17.7071 18.5157C17.5196 18.7032 17.2652 18.8086 17 18.8086H1C0.734784 18.8086 0.48043 18.7032 0.292893 18.5157C0.105357 18.3282 0 18.0738 0 17.8086V1.80859C0 1.54338 0.105357 1.28902 0.292893 1.10149C0.48043 0.913951 0.734784 0.808594 1 0.808594ZM2 2.80859V16.8086H16V2.80859H2ZM8.003 13.8086L3.76 9.56559L5.174 8.15159L8.003 10.9806L13.659 5.32359L15.074 6.73759L8.003 13.8086Z" fill="#131523"/>
</svg>
