<svg width="10" height="11" viewBox="0 0 10 11" fill="none" xmlns="http://www.w3.org/2000/svg">
<path fill-rule="evenodd" clip-rule="evenodd" d="M9.69398 0.450551C10.102 0.858576 10.102 1.52012 9.69398 1.92814L6.47833 5.14379L9.69398 8.36092C10.102 8.76895 10.102 9.43049 9.69398 9.83851C9.28595 10.2465 8.62441 10.2465 8.21639 9.83851L5.00074 6.62138L1.78361 9.83851C1.37559 10.2465 0.714045 10.2465 0.306019 9.83851C-0.102006 9.43049 -0.102006 8.76895 0.306019 8.36092L3.52315 5.14379L0.306019 1.92814C-0.102006 1.52012 -0.102006 0.858576 0.306019 0.450551C0.714045 0.0425248 1.37559 0.0425248 1.78361 0.450551L5.00074 3.6662L8.21639 0.450551C8.62441 0.0425248 9.28595 0.0425248 9.69398 0.450551Z" fill="#333752"/>
</svg>
