<svg width="324" height="309" viewBox="0 0 324 309" fill="none" xmlns="http://www.w3.org/2000/svg">
<g clip-path="url(#clip0_1589_38102)">
<path d="M134.79 308.083C209.233 308.083 269.58 297.069 269.58 283.483C269.58 269.897 209.233 258.883 134.79 258.883C60.3476 258.883 7.62939e-05 269.897 7.62939e-05 283.483C7.62939e-05 297.069 60.3476 308.083 134.79 308.083Z" fill="#E6E9F4"/>
<path d="M57.0801 164.066L24.4101 209.236H57.0801V164.066Z" fill="#D7DBEC"/>
<path d="M210.71 208.726V164.066L242.47 208.726" fill="#D7DBEC"/>
<path d="M55.7501 236.153V68.1534C55.7646 66.8281 56.2382 65.5488 57.0901 64.5334C57.4263 64.1507 57.8378 63.8412 58.2989 63.6245C58.76 63.4077 59.2608 63.2882 59.7701 63.2734H207.27C208.267 63.691 209.124 64.3849 209.74 65.2734C210.847 66.9887 211.325 69.0353 211.09 71.0634V236.523L55.7501 236.153Z" fill="#F5F6FA"/>
<path d="M186.64 86.0156H83.1601C82.4642 86.0156 81.9001 86.5797 81.9001 87.2756V141.336C81.9001 142.032 82.4642 142.596 83.1601 142.596H186.64C187.336 142.596 187.9 142.032 187.9 141.336V87.2756C187.9 86.5797 187.336 86.0156 186.64 86.0156Z" fill="#A1A7C4"/>
<path d="M186.84 165.555H82.9601C82.3747 165.555 81.9001 166.029 81.9001 166.615V175.225C81.9001 175.81 82.3747 176.285 82.9601 176.285H186.84C187.425 176.285 187.9 175.81 187.9 175.225V166.615C187.9 166.029 187.425 165.555 186.84 165.555Z" fill="#A1A7C4"/>
<path d="M186.84 188.863H82.9601C82.3747 188.863 81.9001 189.338 81.9001 189.923V198.533C81.9001 199.119 82.3747 199.593 82.9601 199.593H186.84C187.425 199.593 187.9 199.119 187.9 198.533V189.923C187.9 189.338 187.425 188.863 186.84 188.863Z" fill="#A1A7C4"/>
<path d="M130.65 229.773C118.65 229.773 106.65 229.773 94.6501 229.773C92.2954 228.695 90.1701 227.174 88.3901 225.293C82.6001 219.143 82.7101 211.203 82.8001 209.193H24.4201V276.773C24.3588 279.473 25.1457 282.124 26.6701 284.353C28.6924 287.186 31.7436 289.114 35.1701 289.723H232.44C234.893 289.185 237.135 287.941 238.89 286.143C241.122 283.78 242.397 280.673 242.47 277.423V208.773H185.67C185.67 211.173 185.48 219.033 179.67 225.273C177.992 227.077 176.016 228.578 173.83 229.713C159.497 229.753 145.103 229.773 130.65 229.773Z" fill="#A1A7C4"/>
<path d="M276.91 0.144531C251.09 0.144531 230.17 16.5645 230.17 36.8245C230.17 44.8245 233.5 52.2645 239.08 58.3045L235.18 72.8945L252.75 68.1845C260.304 71.7208 268.549 73.5345 276.89 73.4945C302.7 73.4945 323.63 57.0745 323.63 36.8245C323.63 16.5745 302.75 0.144531 276.91 0.144531Z" fill="#A1A7C4"/>
<path d="M257.79 42.7428C261.065 42.7428 263.72 40.0879 263.72 36.8128C263.72 33.5378 261.065 30.8828 257.79 30.8828C254.515 30.8828 251.86 33.5378 251.86 36.8128C251.86 40.0879 254.515 42.7428 257.79 42.7428Z" fill="#FDFDFD"/>
<path d="M276.01 42.7428C279.285 42.7428 281.94 40.0879 281.94 36.8128C281.94 33.5378 279.285 30.8828 276.01 30.8828C272.735 30.8828 270.08 33.5378 270.08 36.8128C270.08 40.0879 272.735 42.7428 276.01 42.7428Z" fill="#FDFDFD"/>
<path d="M294.24 42.7428C297.515 42.7428 300.17 40.0879 300.17 36.8128C300.17 33.5378 297.515 30.8828 294.24 30.8828C290.965 30.8828 288.31 33.5378 288.31 36.8128C288.31 40.0879 290.965 42.7428 294.24 42.7428Z" fill="#FDFDFD"/>
<path d="M142.35 240.235V260.235L154.16 250.295L142.35 240.235ZM158.63 254.095L142.35 267.775V279.605L165.49 259.905L158.63 254.095ZM136.56 284.545V235.305L107.64 259.925L136.56 284.545ZM131.49 272.965L116.17 259.965L131.49 246.965V272.965Z" fill="#F5F6FA"/>
<path d="M142.35 240.235V260.235L154.16 250.295L142.35 240.235ZM158.63 254.095L142.35 267.775V279.605L165.49 259.905L158.63 254.095ZM136.56 284.545V235.305L107.64 259.925L136.56 284.545ZM131.49 272.965L116.17 259.965L131.49 246.965V272.965Z" fill="#F5F6FA"/>
</g>
<defs>
<clipPath id="clip0_1589_38102">
<rect width="323.65" height="307.94" fill="white" transform="translate(7.62939e-05 0.144531)"/>
</clipPath>
</defs>
</svg>

