<svg width="325" height="309" viewBox="0 0 325 309" fill="none" xmlns="http://www.w3.org/2000/svg">
<g clip-path="url(#clip0_1589_38126)">
<path d="M135.44 308.083C209.882 308.083 270.23 297.069 270.23 283.483C270.23 269.897 209.882 258.883 135.44 258.883C60.9975 258.883 0.649963 269.897 0.649963 283.483C0.649963 297.069 60.9975 308.083 135.44 308.083Z" fill="#E6E9F4"/>
<path d="M57.7299 164.066L25.0599 209.236H57.7299V164.066Z" fill="#D7DBEC"/>
<path d="M211.36 208.726V164.066L243.12 208.726" fill="#D7DBEC"/>
<path d="M56.4 236.153V68.1534C56.4145 66.8281 56.8881 65.5488 57.74 64.5334C58.0762 64.1507 58.4877 63.8412 58.9488 63.6245C59.4099 63.4077 59.9107 63.2882 60.42 63.2734H207.92C208.917 63.691 209.774 64.3849 210.39 65.2734C211.497 66.9887 211.974 69.0353 211.74 71.0634V236.523L56.4 236.153Z" fill="#F5F6FA"/>
<path d="M187.29 86.0156H83.81C83.1141 86.0156 82.55 86.5797 82.55 87.2756V141.336C82.55 142.032 83.1141 142.596 83.81 142.596H187.29C187.986 142.596 188.55 142.032 188.55 141.336V87.2756C188.55 86.5797 187.986 86.0156 187.29 86.0156Z" fill="#A1A7C4"/>
<path d="M187.49 165.555H83.61C83.0246 165.555 82.55 166.029 82.55 166.615V175.225C82.55 175.81 83.0246 176.285 83.61 176.285H187.49C188.075 176.285 188.55 175.81 188.55 175.225V166.615C188.55 166.029 188.075 165.555 187.49 165.555Z" fill="#A1A7C4"/>
<path d="M187.49 188.863H83.61C83.0246 188.863 82.55 189.338 82.55 189.923V198.533C82.55 199.119 83.0246 199.593 83.61 199.593H187.49C188.075 199.593 188.55 199.119 188.55 198.533V189.923C188.55 189.338 188.075 188.863 187.49 188.863Z" fill="#A1A7C4"/>
<path d="M131.3 229.773C119.3 229.773 107.3 229.773 95.3 229.773C92.9453 228.695 90.82 227.174 89.04 225.293C83.25 219.143 83.36 211.203 83.45 209.193H25.07V276.773C25.0087 279.473 25.7956 282.124 27.32 284.353C29.3423 287.186 32.3935 289.114 35.82 289.723H233.09C235.543 289.185 237.785 287.941 239.54 286.143C241.772 283.78 243.047 280.673 243.12 277.423V208.773H186.32C186.32 211.173 186.13 219.033 180.32 225.273C178.642 227.077 176.666 228.578 174.48 229.713C160.147 229.753 145.753 229.773 131.3 229.773Z" fill="#A1A7C4"/>
<path d="M277.56 0.144531C251.74 0.144531 230.82 16.5645 230.82 36.8245C230.82 44.8245 234.15 52.2645 239.73 58.3045L235.83 72.8945L253.4 68.1845C260.954 71.7208 269.199 73.5345 277.54 73.4945C303.35 73.4945 324.28 57.0745 324.28 36.8245C324.28 16.5745 303.4 0.144531 277.56 0.144531Z" fill="#A1A7C4"/>
<path d="M258.44 42.7428C261.715 42.7428 264.37 40.0879 264.37 36.8128C264.37 33.5378 261.715 30.8828 258.44 30.8828C255.165 30.8828 252.51 33.5378 252.51 36.8128C252.51 40.0879 255.165 42.7428 258.44 42.7428Z" fill="#FDFDFD"/>
<path d="M276.66 42.7428C279.935 42.7428 282.59 40.0879 282.59 36.8128C282.59 33.5378 279.935 30.8828 276.66 30.8828C273.385 30.8828 270.73 33.5378 270.73 36.8128C270.73 40.0879 273.385 42.7428 276.66 42.7428Z" fill="#FDFDFD"/>
<path d="M294.89 42.7428C298.165 42.7428 300.82 40.0879 300.82 36.8128C300.82 33.5378 298.165 30.8828 294.89 30.8828C291.615 30.8828 288.96 33.5378 288.96 36.8128C288.96 40.0879 291.615 42.7428 294.89 42.7428Z" fill="#FDFDFD"/>
</g>
<defs>
<clipPath id="clip0_1589_38126">
<rect width="323.65" height="307.94" fill="white" transform="translate(0.649963 0.144531)"/>
</clipPath>
</defs>
</svg>
